<svg xmlns="http://www.w3.org/2000/svg" version="1.1" xmlns:xlink="http://www.w3.org/1999/xlink" xmlns:svgjs="http://svgjs.dev/svgjs" width="1500" height="450" viewBox="0 0 1500 450"><g transform="matrix(1,0,0,1,-1.8351063829786654,-0.8228508849556988)"><svg viewBox="0 0 376 113" data-background-color="#293040" preserveAspectRatio="xMidYMid meet" height="450" width="1500" xmlns="http://www.w3.org/2000/svg" xmlns:xlink="http://www.w3.org/1999/xlink"><g id="tight-bounds" transform="matrix(1,0,0,1,0.46023999999999887,0.20701699999997913)"><svg viewBox="0 0 375.07953 112.586356" height="112.586356" width="375.07953"><g><svg></svg></g><g><svg viewBox="0 0 375.07953 112.586356" height="112.586356" width="375.07953"><g transform="matrix(1,0,0,1,-10.22024,-70.44439)"><path d="M10.22 176.756v-106.312h375.08v106.312h-21.167l0-2.722h18.445v-100.868h-369.636v100.868h28.939l0 2.722z" fill="#d5b263" fill-rule="nonzero" stroke="none" stroke-width="1" stroke-linecap="butt" stroke-linejoin="miter" stroke-miterlimit="10" stroke-dasharray="" stroke-dashoffset="0" font-family="none" font-weight="none" font-size="none" text-anchor="none" style="mix-blend-mode: normal" data-fill-palette-color="tertiary"></path><g><path transform="translate(49.7549,180.87571) scale(0.41443,0.41443)" d="M28.5-34.55h5.9l-4.85 34.55h-8.35l-3.7-27.8-3.85 27.8h-8.2l-4.75-34.55h6.15l3.2 29.45 4.15-29.45h6.75l4.05 29.45zM65.34-13.85c0 0.3-0.05 1.15-0.15 2.55v0h-13.65c0.133 2.733 0.61 4.64 1.43 5.72 0.813 1.087 1.97 1.63 3.47 1.63v0c1.033 0 1.967-0.177 2.8-0.53 0.833-0.347 1.733-0.903 2.7-1.67v0l2.55 3.5c-2.333 2.267-5.133 3.4-8.4 3.4v0c-3.467 0-6.123-1.2-7.97-3.6-1.853-2.4-2.78-5.783-2.78-10.15v0c0-4.367 0.883-7.817 2.65-10.35 1.767-2.533 4.267-3.8 7.5-3.8v0c3.1 0 5.517 1.123 7.25 3.37 1.733 2.253 2.6 5.563 2.6 9.93zM59.34-15.3v-0.35c0-2.5-0.3-4.327-0.9-5.48-0.6-1.147-1.567-1.72-2.9-1.72v0c-1.233 0-2.173 0.557-2.82 1.67-0.653 1.12-1.047 3.08-1.18 5.88v0zM105.47-35.25c2 0 3.767 0.35 5.3 1.05 1.533 0.7 2.95 1.75 4.25 3.15v0l-2.95 3.4c-1.033-0.933-2.04-1.633-3.02-2.1-0.987-0.467-2.03-0.7-3.13-0.7v0c-1.267 0-2.267 0.39-3 1.17-0.733 0.787-1.1 1.813-1.1 3.08v0c0 1.267 0.383 2.3 1.15 3.1 0.767 0.8 2.267 1.633 4.5 2.5v0c2.867 1.167 4.977 2.533 6.33 4.1 1.347 1.567 2.02 3.783 2.02 6.65v0c0 1.967-0.45 3.757-1.35 5.37-0.9 1.62-2.19 2.897-3.87 3.83-1.687 0.933-3.647 1.4-5.88 1.4v0c-2.3 0-4.3-0.41-6-1.23-1.7-0.813-3.25-1.97-4.65-3.47v0l3.2-3.5c1.2 1.067 2.35 1.883 3.45 2.45 1.1 0.567 2.3 0.85 3.6 0.85v0c1.533 0 2.727-0.477 3.58-1.43 0.847-0.947 1.27-2.237 1.27-3.87v0c0-1.433-0.373-2.61-1.12-3.53-0.753-0.913-2.147-1.753-4.18-2.52v0c-3.067-1.233-5.273-2.65-6.62-4.25-1.353-1.6-2.03-3.6-2.03-6v0c0-1.833 0.443-3.467 1.33-4.9 0.88-1.433 2.103-2.557 3.67-3.37 1.567-0.82 3.317-1.23 5.25-1.23zM147.21-13.85c0 0.3-0.05 1.15-0.15 2.55v0h-13.65c0.133 2.733 0.61 4.64 1.43 5.72 0.813 1.087 1.97 1.63 3.47 1.63v0c1.033 0 1.967-0.177 2.8-0.53 0.833-0.347 1.733-0.903 2.7-1.67v0l2.55 3.5c-2.333 2.267-5.133 3.4-8.4 3.4v0c-3.467 0-6.123-1.2-7.97-3.6-1.853-2.4-2.78-5.783-2.78-10.15v0c0-4.367 0.883-7.817 2.65-10.35 1.767-2.533 4.267-3.8 7.5-3.8v0c3.1 0 5.517 1.123 7.25 3.37 1.733 2.253 2.6 5.563 2.6 9.93zM141.21-15.3v-0.35c0-2.5-0.3-4.327-0.9-5.48-0.6-1.147-1.567-1.72-2.9-1.72v0c-1.233 0-2.173 0.557-2.82 1.67-0.653 1.12-1.047 3.08-1.18 5.88v0zM165.66 0.75c-1.8 0-3.227-0.56-4.28-1.68-1.047-1.113-1.57-2.603-1.57-4.47v0-31.65l6.15-0.65v32.05c0 0.433 0.1 0.783 0.3 1.05 0.2 0.267 0.5 0.4 0.9 0.4v0c0.233 0 0.457-0.033 0.67-0.1 0.22-0.067 0.363-0.1 0.43-0.1v0l1.2 4.2c-1.133 0.633-2.4 0.95-3.8 0.95zM186.65 0.75c-1.8 0-3.227-0.56-4.28-1.68-1.047-1.113-1.57-2.603-1.57-4.47v0-31.65l6.15-0.65v32.05c0 0.433 0.1 0.783 0.3 1.05 0.2 0.267 0.5 0.4 0.9 0.4v0c0.233 0 0.457-0.033 0.67-0.1 0.22-0.067 0.363-0.1 0.43-0.1v0l1.2 4.2c-1.133 0.633-2.4 0.95-3.8 0.95zM232.08-35.25c1.767 0 3.323 0.29 4.67 0.87 1.353 0.587 2.663 1.48 3.93 2.68v0l-3.05 3.65c-0.867-0.8-1.71-1.393-2.53-1.78-0.813-0.38-1.703-0.57-2.67-0.57v0c-2 0-3.567 1-4.7 3-1.133 2-1.7 5.35-1.7 10.05v0c0 4.633 0.567 7.957 1.7 9.97 1.133 2.02 2.733 3.03 4.8 3.03v0c1.033 0 1.933-0.21 2.7-0.63 0.767-0.413 1.667-1.053 2.7-1.92v0l3.05 3.5c-1.067 1.2-2.35 2.19-3.85 2.97-1.5 0.787-3.183 1.18-5.05 1.18v0c-3.9 0-7-1.517-9.3-4.55-2.3-3.033-3.45-7.55-3.45-13.55v0c0-3.967 0.55-7.283 1.65-9.95 1.1-2.667 2.607-4.657 4.52-5.97 1.92-1.32 4.113-1.98 6.58-1.98zM269.67-6.4c0 0.867 0.117 1.507 0.35 1.92 0.233 0.42 0.617 0.763 1.15 1.03v0l-1.25 4.1c-1.367-0.167-2.457-0.533-3.27-1.1-0.82-0.567-1.43-1.433-1.83-2.6v0c-1.533 2.533-3.683 3.8-6.45 3.8v0c-2.2 0-3.95-0.743-5.25-2.23-1.3-1.48-1.95-3.453-1.95-5.92v0c0-2.867 0.893-5.05 2.68-6.55 1.78-1.5 4.37-2.25 7.77-2.25v0h2.05v-1.85c0-1.667-0.29-2.843-0.87-3.53-0.587-0.68-1.53-1.02-2.83-1.02v0c-1.567 0-3.517 0.433-5.85 1.3v0l-1.4-4c1.333-0.6 2.717-1.06 4.15-1.38 1.433-0.313 2.8-0.47 4.1-0.47v0c5.8 0 8.7 2.933 8.7 8.8v0zM260.02-3.7c1.6 0 2.817-1.1 3.65-3.3v0-5.55h-1.45c-1.7 0-2.94 0.383-3.72 1.15-0.787 0.767-1.18 1.95-1.18 3.55v0c0 1.367 0.233 2.4 0.7 3.1 0.467 0.7 1.133 1.05 2 1.05zM295.66-27.1c0.767 0 1.45 0.117 2.05 0.35v0l-1 5.9c-0.667-0.167-1.283-0.25-1.85-0.25v0c-1.267 0-2.267 0.55-3 1.65-0.733 1.1-1.3 2.733-1.7 4.9v0 14.55h-6.15v-26.45h5.35l0.45 4.6c1.233-3.5 3.183-5.25 5.85-5.25zM316.45-27.15c3.133 0 5.783 1.033 7.95 3.1v0l-2.35 3.35c-0.933-0.667-1.817-1.167-2.65-1.5-0.833-0.333-1.683-0.5-2.55-0.5v0c-0.967 0-1.723 0.257-2.27 0.77-0.553 0.52-0.83 1.23-0.83 2.13v0c0 0.9 0.31 1.623 0.93 2.17 0.613 0.553 1.853 1.197 3.72 1.93v0c2.3 0.9 4 1.967 5.1 3.2 1.1 1.233 1.65 2.883 1.65 4.95v0c0 2.567-0.9 4.59-2.7 6.07-1.8 1.487-4.083 2.23-6.85 2.23v0c-1.8 0-3.457-0.327-4.97-0.98-1.52-0.647-2.847-1.553-3.98-2.72v0l3-3.3c1.867 1.633 3.767 2.45 5.7 2.45v0c1.1 0 1.967-0.29 2.6-0.87 0.633-0.587 0.95-1.397 0.95-2.43v0c0-0.767-0.133-1.39-0.4-1.87-0.267-0.487-0.733-0.94-1.4-1.36-0.667-0.413-1.667-0.87-3-1.37v0c-2.3-0.9-3.94-1.95-4.92-3.15-0.987-1.2-1.48-2.733-1.48-4.6v0c0-2.233 0.793-4.077 2.38-5.53 1.58-1.447 3.703-2.17 6.37-2.17zM357.98-40.45h5.75v45.65h-5.75zM398.57-34.55h17.15l-0.65 4.75h-10.15v9.9h8.85v4.7h-8.85v10.4h10.8v4.8h-17.15zM443.66-34.55h6.25l-8 34.55h-7.95l-8.3-34.55h6.45l5.9 28.95zM461.35-34.55h17.15l-0.65 4.75h-10.15v9.9h8.85v4.7h-8.85v10.4h10.8v4.8h-17.15zM513.89 0h-6.85l-6.1-13.95h-0.6-2.45v13.95h-6.35v-34.55h8.15c8.333 0 12.5 3.383 12.5 10.15v0c0 2.1-0.467 3.96-1.4 5.58-0.933 1.613-2.333 2.837-4.2 3.67v0zM499.99-18.55c1.967 0 3.393-0.467 4.28-1.4 0.88-0.933 1.32-2.417 1.32-4.45v0c0-1.9-0.457-3.293-1.37-4.18-0.92-0.88-2.43-1.32-4.53-1.32v0h-1.8v11.35zM540.48-34.55h6.5l-9.1 21.4v13.15h-6.4v-13.1l-9.1-21.45h6.75l5.65 16.25zM583.77-34.55h5.9l-4.85 34.55h-8.35l-3.7-27.8-3.85 27.8h-8.2l-4.75-34.55h6.15l3.2 29.45 4.15-29.45h6.75l4.05 29.45zM623.61 0h-6.4v-15.5h-8.95v15.5h-6.35v-34.55h6.35v13.95h8.95v-13.95h6.4zM638.11-34.55h17.15l-0.65 4.75h-10.15v9.9h8.85v4.7h-8.85v10.4h10.8v4.8h-17.15zM690.65 0h-6.85l-6.1-13.95h-0.6-2.45v13.95h-6.35v-34.55h8.15c8.333 0 12.5 3.383 12.5 10.15v0c0 2.1-0.467 3.96-1.4 5.58-0.933 1.613-2.333 2.837-4.2 3.67v0zM676.75-18.55c1.967 0 3.39-0.467 4.27-1.4 0.887-0.933 1.33-2.417 1.33-4.45v0c0-1.9-0.46-3.293-1.38-4.18-0.913-0.88-2.42-1.32-4.52-1.32v0h-1.8v11.35zM702.39-34.55h17.15l-0.65 4.75h-10.15v9.9h8.85v4.7h-8.85v10.4h10.8v4.8h-17.15zM731.78-34.55h6.55l-0.85 22.45h-4.85zM735.08-7.05c1.1 0 2.007 0.383 2.72 1.15 0.72 0.767 1.08 1.683 1.08 2.75v0c0 1.067-0.36 1.983-1.08 2.75-0.713 0.767-1.62 1.15-2.72 1.15v0c-1.1 0-2.01-0.383-2.73-1.15-0.713-0.767-1.07-1.683-1.07-2.75v0c0-1.067 0.357-1.983 1.07-2.75 0.72-0.767 1.63-1.15 2.73-1.15z" fill="#d5b263" fill-rule="nonzero" stroke="none" stroke-width="1" stroke-linecap="butt" stroke-linejoin="miter" stroke-miterlimit="10" stroke-dasharray="" stroke-dashoffset="0" font-family="none" font-weight="none" font-size="none" text-anchor="none" style="mix-blend-mode: normal" data-fill-palette-color="secondary" id="text-1"></path></g></g><g transform="matrix(1,0,0,1,29.33176499999999,36.48292922146179)"><svg viewBox="0 0 316.416 39.620497557076426" height="39.620497557076426" width="316.416"><g><svg viewBox="0 0 316.416 39.620497557076426" height="39.620497557076426" width="316.416"><g><svg viewBox="0 0 495.9086536619067 62.09593573316341" height="39.620497557076426" width="316.416"><g transform="matrix(1,0,0,1,179.49265366190673,7.399580429167049)"><svg viewBox="0 0 316.416 47.29677487482931" height="47.29677487482931" width="316.416"><g id="textblocktransform"><svg viewBox="0 0 316.416 47.29677487482931" height="47.29677487482931" width="316.416" id="textblock"><g><svg viewBox="0 0 316.416 47.29677487482931" height="47.29677487482931" width="316.416"><g transform="matrix(1,0,0,1,0,0)"><svg width="316.416" viewBox="1.66 -40.09 268.16999999999996 40.09" height="47.29677487482931" data-palette-color="#d5b263"><path d="M5.66-39.99L31.96-39.99Q33.3-39.99 33.3-38.87L33.3-38.87Q33.3-38.38 33.01-37.96L33.01-37.96 9.72-4.93Q9.45-4.66 9.59-4.35 9.74-4.03 10.45-4.03L10.45-4.03 27.49-4.03Q30.25-4.03 30.87-4.5 31.49-4.98 31.74-5.35 31.98-5.71 32.13-5.71 32.28-5.71 32.63-5.59 32.98-5.47 32.98-5.37 32.98-5.27 32.64-4.39L32.64-4.39 31.86-2.39Q31.42-1.25 31.26-0.65 31.1-0.05 31.05-0.02 31.01 0 30.83 0L30.83 0 2.73-0.07Q1.66-0.07 1.66-1.66L1.66-1.66Q1.66-2 2.17-2.71L2.17-2.71 24.61-34.5Q25.63-36.04 24.37-36.04L24.37-36.04 9.01-36.04Q6.25-36.04 5.42-35.4L5.42-35.4Q4.98-35.11 4.74-34.74 4.49-34.38 4.36-34.36 4.22-34.35 3.87-34.47 3.52-34.59 3.52-34.7 3.52-34.81 3.86-35.64L3.86-35.64 4.64-37.6Q5.08-38.72 5.25-39.31 5.42-39.89 5.66-39.99L5.66-39.99ZM38.08-39.99L38.08-39.99 45.99-39.99Q46.31-39.99 46.31-39.56 46.31-39.14 46.2-39.05 46.09-38.96 45.9-38.88 45.7-38.79 45.4-38.49 45.09-38.18 44.75-37.37 44.41-36.55 44.41-35.72L44.41-35.72 44.41-4.27Q44.41-2.49 45.58-1.32L45.58-1.32Q45.68-1.22 45.99-1.07 46.31-0.93 46.31-0.46 46.31 0 45.99 0L45.99 0 38.08 0Q37.77 0 37.77-0.43 37.77-0.85 37.88-0.94 37.99-1.03 38.18-1.11 38.38-1.2 38.68-1.5 38.99-1.81 39.33-2.62 39.67-3.44 39.67-4.27L39.67-4.27 39.67-35.72Q39.67-37.5 38.5-38.67L38.5-38.67Q38.4-38.77 38.08-38.92 37.77-39.06 37.77-39.53 37.77-39.99 38.08-39.99ZM54.63-4.27L59.05-37.7Q57.51-38.21 56.64-38.21L56.64-38.21Q55.32-38.21 54.54-38.07 53.75-37.94 53.68-38.06 53.61-38.18 53.61-38.43 53.61-38.67 53.78-38.94 53.95-39.21 54.19-39.26L54.19-39.26Q57.83-40.09 64.16-40.09L64.16-40.09 76.41-20.07 76.66-20.07 88.37-40.09Q94.7-40.09 98.33-39.26L98.33-39.26Q98.92-39.14 98.92-38.35L98.92-38.35Q98.92-37.92 98.14-38.05 97.36-38.18 96.06-38.18 94.77-38.18 93.31-37.62L93.31-37.62 97.97-4.27Q98.31-1.66 99.56-1.07L99.56-1.07Q99.87-0.93 99.87-0.46 99.87 0 99.56 0L99.56 0 91.43 0Q91.11 0 91.11-0.43 91.11-0.85 91.22-0.94 91.33-1.03 91.52-1.12L91.52-1.12Q92.16-1.39 92.63-2.55 93.11-3.71 93.11-4.14 93.11-4.57 93.09-4.71L93.09-4.71 89.16-33.72 89.03-33.72 76.97-12.62Q76.9-12.5 76.08-12.52 75.26-12.55 75.21-12.62L75.21-12.62 62.64-33.72 62.42-33.72 58.83-4.71Q58.71-3.93 59.15-2.87 59.59-1.81 59.88-1.51 60.18-1.22 60.49-1.07 60.81-0.93 60.81-0.46 60.81 0 60.49 0L60.49 0 53.05 0Q52.73 0 52.73-0.43 52.73-0.85 52.84-0.94 52.95-1.03 53.14-1.12L53.14-1.12Q54.29-1.61 54.63-4.27L54.63-4.27ZM112.37-23.93L127.78-23.93Q129.56-23.93 130.73-25.1L130.73-25.1Q130.83-25.2 130.97-25.51 131.12-25.83 131.58-25.83 132.05-25.83 132.05-25.51L132.05-25.51 132.05-18.43Q132.05-18.12 131.62-18.12 131.19-18.12 131.11-18.23 131.02-18.33 130.94-18.53 130.85-18.73 130.55-19.03 130.24-19.34 129.42-19.65 128.61-19.97 127.78-19.97L127.78-19.97 112.37-19.97 112.37-3.96 128.58-3.96Q131.34-3.96 131.96-4.43 132.59-4.91 132.84-5.27 133.1-5.64 133.23-5.64 133.37-5.64 133.72-5.52 134.07-5.4 134.07-5.3 134.07-5.2 133.73-4.35L133.73-4.35 132.95-2.37Q132.51-1.25 132.35-0.67 132.19-0.1 131.93 0L131.93 0 106.05 0Q105.73 0 105.73-0.43 105.73-0.85 105.84-0.94 105.95-1.03 106.14-1.11 106.34-1.2 106.65-1.5 106.95-1.81 107.29-2.62 107.63-3.44 107.63-4.27L107.63-4.27 107.63-35.72Q107.63-37.5 106.46-38.67L106.46-38.67Q106.36-38.77 106.05-38.92 105.73-39.06 105.73-39.53 105.73-39.99 106.05-39.99L106.05-39.99 131.93-39.99Q132.17-39.99 132.34-39.37 132.51-38.75 132.95-37.62L132.95-37.62 133.73-35.64Q134.07-34.79 134.07-34.69 134.07-34.59 133.72-34.47 133.37-34.35 133.26-34.35 133.15-34.35 133.02-34.48 132.9-34.62 132.74-34.85 132.59-35.08 131.96-35.56 131.34-36.04 128.58-36.04L128.58-36.04 112.37-36.04 112.37-23.93ZM149.09-23.22L149.09-22.83 164.52-3.74Q165.2-2.81 166.03-2.09 166.86-1.37 166.93-1.29 167.01-1.22 167.32-1.07 167.64-0.93 167.64-0.46 167.64 0 167.32 0L167.32 0 158.49 0Q158.17 0 158.17-0.43 158.17-0.85 158.28-0.94 158.39-1.03 158.58-1.12L158.58-1.12Q159.49-1.51 159.35-2.31 159.22-3.1 158.29-4.35L158.29-4.35 145.84-19.75 145.42-19.75 145.42-4.27Q145.42-2.49 146.6-1.32L146.6-1.32Q146.69-1.22 147.01-1.07 147.33-0.93 147.33-0.46 147.33 0 147.01 0L147.01 0 139.1 0Q138.78 0 138.78-0.43 138.78-0.85 138.89-0.94 139-1.03 139.2-1.11 139.39-1.2 139.7-1.5 140-1.81 140.35-2.62 140.69-3.44 140.69-4.27L140.69-4.27 140.69-35.72Q140.69-37.5 139.52-38.67L139.52-38.67Q139.42-38.77 139.1-38.92 138.78-39.06 138.78-39.53 138.78-39.99 139.1-39.99L139.1-39.99 147.01-39.99Q147.33-39.99 147.33-39.56 147.33-39.14 147.22-39.05 147.11-38.96 146.91-38.88 146.72-38.79 146.41-38.49 146.11-38.18 145.77-37.37 145.42-36.55 145.42-35.72L145.42-35.72 145.42-25.51 145.84-25.51 156.9-36.06Q158.46-37.55 158.56-37.67L158.56-37.67Q159.22-38.45 158.17-38.92L158.17-38.92Q157.85-39.06 157.85-39.53 157.85-39.99 158.17-39.99L158.17-39.99 165.86-39.99Q166.18-39.99 166.18-39.55 166.18-39.11 166.12-39.03 166.05-38.94 165.49-38.71 164.93-38.48 163.69-37.18L163.69-37.18 149.09-23.22ZM171.37-39.99L171.37-39.99 179.28-39.99Q179.6-39.99 179.6-39.56 179.6-39.14 179.49-39.05 179.38-38.96 179.19-38.88 178.99-38.79 178.69-38.49 178.38-38.18 178.04-37.37 177.7-36.55 177.7-35.72L177.7-35.72 177.7-4.27Q177.7-2.49 178.87-1.32L178.87-1.32Q178.97-1.22 179.28-1.07 179.6-0.93 179.6-0.46 179.6 0 179.28 0L179.28 0 171.37 0Q171.06 0 171.06-0.43 171.06-0.85 171.17-0.94 171.28-1.03 171.47-1.11 171.67-1.2 171.97-1.5 172.28-1.81 172.62-2.62 172.96-3.44 172.96-4.27L172.96-4.27 172.96-35.72Q172.96-37.5 171.79-38.67L171.79-38.67Q171.69-38.77 171.37-38.92 171.06-39.06 171.06-39.53 171.06-39.99 171.37-39.99ZM185.92-39.99L192.1-39.99Q192.32-39.99 192.51-39.79L192.51-39.79 219.81-10.84 219.98-10.84 219.98-35.72Q219.98-37.48 218.78-38.67L218.78-38.67Q218.69-38.77 218.37-38.92 218.05-39.06 218.05-39.53 218.05-39.99 218.37-39.99L218.37-39.99 226.35-39.99Q226.67-39.99 226.67-39.56 226.67-39.14 226.56-39.05 226.45-38.96 226.25-38.88 226.06-38.79 225.74-38.48 225.42-38.16 225.07-37.35 224.72-36.55 224.72-35.72L224.72-35.72 224.72-1.29Q224.72-0.39 224.48-0.2 224.25 0 223.74 0 223.23 0 222.91-0.29L222.91-0.29 192.22-32.86 192.22-4.27Q192.22-2.39 193.3-1.32L193.3-1.32Q193.39-1.22 193.71-1.07 194.03-0.93 194.03-0.46 194.03 0 193.71 0L193.71 0 185.85 0Q185.53 0 185.53-0.43 185.53-0.85 185.64-0.94 185.75-1.03 185.95-1.11 186.14-1.2 186.26-1.32L186.26-1.32Q187.49-2.54 187.49-4.27L187.49-4.27 187.49-35.72Q187.49-37.52 186.34-38.67L186.34-38.67Q186.24-38.77 185.92-38.92 185.61-39.06 185.61-39.53 185.61-39.99 185.92-39.99L185.92-39.99ZM232.6-3.74L232.6-3.74Q232.6-3.74 248.66-39.7L248.66-39.7Q248.79-39.99 249.86-39.99 250.93-39.99 251.08-39.7L251.08-39.7 267.63-3.74Q268.59-1.51 269.51-1.07L269.51-1.07Q269.83-0.93 269.83-0.46 269.83 0 269.51 0L269.51 0 260.68 0Q260.36 0 260.36-0.43 260.36-0.85 260.47-0.94 260.58-1.03 260.77-1.11 260.97-1.2 261.09-1.32L261.09-1.32Q262.02-2.25 262.02-3.04 262.02-3.83 261.85-4.35L261.85-4.35 258.31-12.72 240.71-12.72 237.24-4.35Q237.07-3.83 237.07-3.56L237.07-3.56 237.07-3.3Q237.07-3.27 237.07-3.25L237.07-3.25Q237.07-2.25 238-1.32L238-1.32Q238.09-1.22 238.41-1.07 238.73-0.93 238.73-0.46 238.73 0 238.41 0L238.41 0 230.72 0Q230.4 0 230.4-0.43 230.4-0.85 230.51-0.94 230.62-1.03 230.82-1.12L230.82-1.12Q231.62-1.46 232.6-3.74ZM249.3-31.93L242.44-16.6Q242.39-16.53 242.41-16.42 242.44-16.31 242.51-16.31L242.51-16.31 256.45-16.31Q256.53-16.31 256.55-16.42 256.57-16.53 256.53-16.6L256.53-16.6 249.47-31.93 249.3-31.93Z" opacity="1" transform="matrix(1,0,0,1,0,0)" fill="#d5b263" class="wordmark-text-0" data-fill-palette-color="primary" id="text-0"></path></svg></g></svg></g></svg></g></svg></g><g><svg viewBox="0 0 168.32702023655654 62.09593573316341" height="62.09593573316341" width="168.32702023655654"><g><svg xmlns="http://www.w3.org/2000/svg" xmlns:xlink="http://www.w3.org/1999/xlink" version="1.1" x="0" y="0" viewBox="0.2962725501305952 33.94692138280563 99.40639946256866 36.67107861719437" enable-background="new 0 33.947 100 36.669" xml:space="preserve" id="icon-0" width="168.32702023655654" height="62.09593573316341" class="icon-icon-0" data-fill-palette-color="accent"><g fill="#c9ad8b" data-fill-palette-color="accent"><path d="M15.524 55.357A7.631 7.631 0 0 0 15.524 70.618 7.631 7.631 0 0 0 15.524 55.357M15.524 66.189A3.22 3.22 0 1 1 15.526 59.747 3.22 3.22 0 0 1 15.524 66.189" fill="#c9ad8b" data-fill-palette-color="accent"></path><path d="M82.53 55.355A7.63 7.63 0 0 0 74.898 62.984 7.632 7.632 0 0 0 90.16 62.984 7.63 7.63 0 0 0 82.53 55.355M82.53 66.189A3.222 3.222 0 1 1 85.753 62.969 3.22 3.22 0 0 1 82.53 66.189" fill="#c9ad8b" data-fill-palette-color="accent"></path><path d="M78.23 44.515S59.466 35.765 53.476 34.497C47.489 33.229 26.879 34.382 24.922 35.648L13.407 41.288 2.125 46.815 0.298 57.465S0.248 63.783 0.686 65.238H6.213L6.284 62.988C6.284 57.885 10.422 53.748 15.527 53.748 20.63 53.748 24.765 57.886 24.765 62.988L24.923 65.238H73.282L73.289 62.408C73.289 57.305 77.145 53.538 82.248 53.538S91.771 57.306 91.771 62.408L91.961 65.024S97.806 65.354 99.649 64.663C99.649 64.663 100.339 54.876 96.771 51.306 93.603 48.308 87.213 46.44 78.23 44.515M25.956 45.896S28.319 40.886 30.899 38.972C32.81 37.345 43.345 37.389 43.345 37.389L43.734 47.104zM71.613 48.198L46.915 47.22 46.338 37.374C55.492 37.03 65.914 41.923 71.901 45.434 77.89 48.946 71.613 48.198 71.613 48.198" fill="#c9ad8b" data-fill-palette-color="accent"></path></g></svg></g></svg></g></svg></g></svg></g></svg></g></svg></g><defs></defs></svg><rect width="375.07953" height="112.586356" fill="none" stroke="none" visibility="hidden"></rect></g></svg></g></svg>